<?xml version="1.0" standalone="no"?>
<!DOCTYPE svg PUBLIC "-//W3C//DTD SVG 20010904//EN"
 "http://www.w3.org/TR/2001/REC-SVG-20010904/DTD/svg10.dtd">
<svg version="1.0" xmlns="http://www.w3.org/2000/svg"
 width="480.000000pt" height="480.000000pt" viewBox="0 0 480.000000 480.000000"
 preserveAspectRatio="xMidYMid meet">
<metadata>
Created by potrace 1.14, written by Peter Selinger 2001-2017
</metadata>
<g transform="translate(0.000000,480.000000) scale(0.100000,-0.100000)"
fill="#000000" stroke="none">
<path d="M2579 4626 c-2 -2 -31 -6 -64 -10 -531 -55 -1067 -329 -1542 -787
-66 -63 -104 -107 -105 -121 0 -13 -2 -30 -3 -38 -2 -22 26 -69 53 -86 13 -8
40 -15 60 -16 39 0 48 4 368 178 203 110 464 241 554 279 36 15 79 33 95 40
109 48 372 124 480 139 196 27 470 27 621 0 274 -49 508 -134 683 -249 92 -59
100 -66 184 -145 119 -112 194 -228 260 -400 76 -198 102 -350 102 -585 -1
-146 -5 -203 -24 -315 -60 -353 -226 -725 -468 -1045 -213 -280 -461 -497
-748 -652 -79 -42 -120 -62 -250 -118 -111 -49 -341 -114 -490 -139 -489 -84
-931 4 -1256 250 -79 60 -202 186 -268 274 -31 41 -58 77 -61 80 -11 10 -60
90 -60 96 0 4 -6 15 -14 23 -25 28 -144 273 -189 392 -67 173 -128 396 -151
549 -31 208 -27 490 8 688 120 667 542 1199 1149 1452 104 43 128 69 111 117
-17 50 -50 51 -166 8 -717 -264 -1185 -826 -1317 -1578 -31 -176 -35 -589 -8
-767 9 -58 19 -123 22 -145 31 -210 145 -555 257 -779 130 -261 337 -526 533
-683 189 -151 431 -268 638 -309 10 -2 26 -5 35 -8 99 -30 270 -45 487 -41
234 3 234 3 422 41 659 131 1285 536 1670 1080 268 378 446 855 500 1341 16
137 8 484 -13 603 -93 534 -375 920 -839 1153 -169 84 -409 166 -568 192 -18
3 -57 10 -87 15 -30 5 -73 12 -95 15 -45 7 -500 17 -506 11z"/>
<path d="M1937 3640 c-28 -22 -51 -80 -43 -107 2 -10 7 -39 11 -65 5 -44 0
-59 -94 -250 -221 -451 -390 -883 -638 -1628 -66 -200 -102 -322 -98 -337 10
-41 71 -69 111 -51 20 9 34 34 146 243 54 101 262 522 298 602 l23 51 191 -3
c105 -2 200 -6 211 -9 12 -2 48 -7 80 -11 83 -10 97 -13 105 -22 4 -5 19 -53
33 -108 80 -310 215 -652 282 -715 40 -38 121 -26 146 23 35 64 -25 413 -131
767 -33 110 -164 567 -226 785 -94 334 -125 438 -180 605 -52 158 -70 200 -94
223 -38 34 -95 37 -133 7z m157 -1015 c21 -77 44 -161 51 -187 8 -27 11 -48 8
-48 -3 0 0 -6 6 -14 10 -12 -16 -14 -178 -14 -104 0 -194 -3 -200 -7 -6 -3
-11 -4 -11 -2 0 3 29 79 64 169 35 89 88 230 117 311 l52 148 27 -108 c15 -59
44 -171 64 -248z"/>
<path d="M3062 3278 c-12 -6 -25 -22 -28 -35 -12 -46 4 -194 41 -373 3 -14 8
-38 11 -55 2 -16 9 -44 13 -62 l9 -32 -56 -12 c-32 -6 -97 -24 -147 -40 -104
-34 -126 -55 -133 -130 -4 -44 -1 -51 27 -80 31 -31 34 -31 99 -26 59 5 187
28 233 43 18 5 24 -10 34 -82 5 -34 27 -150 41 -222 21 -103 59 -210 85 -238
47 -51 140 -32 158 32 16 59 3 212 -35 389 -39 186 -38 175 -17 175 23 1 121
33 161 54 82 43 100 159 30 197 -37 20 -146 18 -245 -6 -22 -5 -27 9 -49 122
-17 88 -113 342 -142 376 -17 19 -55 21 -90 5z"/>
</g>
</svg>
